# xmcd
#
# Track frame offsets:
#	150
#	16340
#	32322
#
# Disc length: 690 seconds
#
# Revision: 0
# Processed by: cddbd v1.4PL0 Copyright (c) Steve Scherf et al.
# Submitted via: audiograbber 1.80
#
DISCID=1302b003
DTITLE=Jerome Walker - Single
DYEAR=1900
DGENRE=
TTITLE0=Love Is All Around (Radio Edit)
TTITLE1=Love Is All Around (Instr)
TTITLE2=Crazy
EXTD=
EXTT0=
EXTT1=
EXTT2=
PLAYORDER=
